<?xml version="1.0" encoding="UTF-8"?>
<svg version="1.1" xmlns="http://www.w3.org/2000/svg" width="512" height="512">
<path d="M0 0 C1.67416619 -0.0083016 1.67416619 -0.0083016 3.38215393 -0.0167709 C7.13568484 -0.03042371 10.88855617 -0.01538239 14.64207458 -0.00050354 C17.32743669 -0.00428501 20.01275416 -0.00963065 22.69810486 -0.01687622 C29.24255702 -0.03082054 35.78681643 -0.02324404 42.33125944 -0.00820064 C49.94879856 0.00864424 57.56628947 0.00545118 65.18384146 0.00170528 C78.77266 -0.00417537 92.36138592 0.01000684 105.95018005 0.03465271 C119.14357474 0.05857883 132.33684569 0.06565541 145.53025818 0.05516052 C159.89000899 0.04375836 174.24970255 0.04181219 188.60945266 0.05625862 C190.13979113 0.0577845 191.67012959 0.05930485 193.20046806 0.06081963 C193.95346808 0.06157744 194.70646809 0.06233525 195.48228629 0.06311603 C200.79540533 0.06786393 206.10849885 0.06600389 211.42161751 0.06175423 C217.89343808 0.05683413 224.36514153 0.06278258 230.83693523 0.08264852 C234.14061141 0.09253881 237.44407192 0.09600513 240.74776268 0.08975601 C244.32438548 0.08383717 247.90047607 0.09624329 251.47705078 0.11352539 C252.52781266 0.10751535 253.57857454 0.1015053 254.66117769 0.09531313 C255.61565104 0.10375307 256.57012438 0.11219301 257.55352116 0.12088871 C258.37952291 0.12191784 259.20552466 0.12294697 260.05655676 0.12400728 C262.70603645 0.59575135 263.58825517 1.35460239 265.17503357 3.50120544 C265.77567784 7.87732802 265.55799614 9.92135251 263.10081482 13.64183044 C260.88829913 17.90537502 261.07914631 21.71433021 261.40940857 26.38011169 C263.07525606 53.08547806 255.70757431 71.12138226 242.65940857 94.18479919 C242.16912107 95.05144384 241.67883358 95.91808849 241.17368889 96.8109951 C238.4564293 101.58342618 235.6851989 106.29165158 232.74665833 110.93139648 C222.76344574 127.39290729 221.35604354 142.11725315 221.75377798 160.80781364 C221.81945418 164.60839313 221.8065083 168.40879397 221.80226135 172.20982361 C221.80510942 179.37449008 221.87082331 186.53696654 221.96302903 193.70098543 C222.09601629 204.2264826 222.14128272 214.75246542 222.17541695 225.27869415 C222.17922931 226.44307943 222.17922931 226.44307943 222.1831187 227.63098764 C222.1881425 229.17918669 222.19297725 230.72738636 222.19761765 232.27558661 C222.21337484 236.77357099 222.25084244 241.27069046 222.30797839 245.76833534 C222.33342758 247.88748636 222.35232517 250.00658508 222.36871338 252.12582397 C222.38958267 254.69667908 222.42159457 257.26748001 222.46734619 259.8380127 C222.51395593 268.3844202 221.66502714 276.06191662 216.17503357 282.93870544 C215.68003357 283.57679138 215.18503357 284.21487732 214.67503357 284.87229919 C213.17503357 286.50120544 213.17503357 286.50120544 210.17503357 288.50120544 C209.84503357 354.17120544 209.51503357 419.84120544 209.17503357 487.50120544 C76.84503357 487.50120544 -55.48496643 487.50120544 -191.82496643 487.50120544 C-191.82496643 470.50120544 -191.82496643 470.50120544 -185.44996643 464.12620544 C-180.55474146 461.09582808 -176.09212577 460.25119367 -170.38633919 460.25510979 C-168.46126067 460.24913664 -168.46126067 460.24913664 -166.49729168 460.24304283 C-165.08040299 460.24874824 -163.66351504 460.25463942 -162.24662781 460.26069641 C-160.73589661 460.25982404 -159.2251657 460.25807247 -157.71443641 460.25551808 C-153.56637927 460.2510468 -149.41842543 460.25904524 -145.27038145 460.2690742 C-140.79600752 460.27770954 -136.32163944 460.27478848 -131.84725952 460.27326965 C-124.09618372 460.27222086 -116.34514158 460.27849693 -108.59407425 460.28974533 C-97.38733051 460.30599805 -86.18060305 460.31120811 -74.9738488 460.31372131 C-56.79172514 460.31809877 -38.60961942 460.33140926 -20.42750549 460.35032654 C-2.7650715 460.36868402 14.8973576 460.38281824 32.55979919 460.39134216 C33.65957981 460.39187816 34.75936043 460.39241415 35.89246774 460.39296639 C44.49344976 460.39712522 53.09443189 460.40103908 61.69541407 460.40487552 C103.8553037 460.42374354 146.01514842 460.46398 188.17503357 460.50120544 C188.17503357 404.73120544 188.17503357 348.96120544 188.17503357 291.50120544 C186.19503357 291.17120544 184.21503357 290.84120544 182.17503357 290.50120544 C174.42645596 286.34063914 170.18939483 280.0481094 167.64012146 271.76268005 C167.03573257 268.82385889 166.95404551 265.98443782 166.85862732 262.98558044 C166.81673279 261.73518982 166.77483826 260.48479919 166.73167419 259.19651794 C166.69235779 257.89456482 166.65304138 256.59261169 166.61253357 255.25120544 C166.56934998 253.93378357 166.52616638 252.61636169 166.48167419 251.25901794 C166.3756144 248.00651757 166.27355333 244.75394153 166.17503357 241.50120544 C165.62154236 242.61342468 165.06805115 243.72564392 164.49778748 244.87156677 C162.39383868 249.09791097 160.28701437 253.32281675 158.1794281 257.54734802 C157.27698112 259.35719347 156.37525902 261.16740059 155.47434998 262.97801208 C150.2922042 273.39151955 145.03018609 283.75250378 139.58692932 294.03216553 C136.5276097 299.81269451 133.56470556 305.63387466 130.67503357 311.50120544 C126.87210289 319.1664876 122.95857763 326.7610733 118.94456482 334.31761169 C115.7609667 340.33330657 112.70179948 346.40528195 109.67503357 352.50120544 C105.86963978 360.16528985 101.95861036 367.76101168 97.94456482 375.31761169 C94.27353576 382.25435114 90.77493715 389.2718949 87.28489685 396.30101013 C83.94210716 403.01490824 80.50312715 409.67092299 76.96214294 416.28245544 C74.0490454 421.74900886 71.27254809 427.28004667 68.5075531 432.82249451 C68.09038528 433.65781708 67.67321747 434.49313965 67.2434082 435.35377502 C66.22021751 437.40271964 65.19743767 439.45186824 64.17503357 441.50120544 C31.63916989 441.75238 -0.8964134 441.94693218 -33.43302594 442.06292407 C-37.27802983 442.07668112 -41.12303181 442.09091874 -44.96803284 442.10545349 C-46.11619324 442.10978161 -46.11619324 442.10978161 -47.28754881 442.11419717 C-59.66637304 442.16200544 -72.04463285 442.24870347 -84.42312273 442.3498862 C-97.13352493 442.45291212 -109.84363243 442.51388519 -122.55443501 442.53617889 C-130.39215135 442.55124035 -138.22827222 442.59872782 -146.06549713 442.68828658 C-152.08482098 442.75354935 -158.10278534 442.76017375 -164.12250328 442.74538994 C-166.58477514 442.74840823 -169.04710918 442.77018532 -171.50901985 442.81246567 C-192.04913613 443.14781915 -192.04913613 443.14781915 -198.64463258 437.65569288 C-200.92630374 435.42551632 -202.89925791 433.0417276 -204.82496643 430.50120544 C-208.08394316 426.65232726 -210.34429052 424.2647101 -215.51246643 423.75120544 C-216.25883362 423.73573669 -217.00520081 423.72026794 -217.77418518 423.70433044 C-219.82496643 423.50120544 -219.82496643 423.50120544 -222.82496643 421.50120544 C-224.0758454 417.77979233 -223.8613845 415.6930524 -222.14918518 412.21214294 C-221.74280823 411.37159363 -221.33643127 410.53104431 -220.91773987 409.6650238 C-220.45399963 408.74471375 -219.9902594 407.82440369 -219.51246643 406.87620544 C-219.02681213 405.88693054 -218.54115784 404.89765564 -218.04078674 403.87840271 C-212.74115255 393.16149089 -207.23508484 382.545055 -201.74171448 371.92649841 C-196.68903626 362.15707784 -191.72039271 352.35030118 -186.82496643 342.50120544 C-182.61297381 334.03042782 -178.33881835 325.60377967 -173.88160706 317.25901794 C-169.37191124 308.75292502 -165.11562896 300.11907177 -160.82496643 291.50120544 C-155.89415242 281.59766082 -150.95327837 271.71230239 -145.73121643 261.95823669 C-141.265911 253.55561803 -137.06563594 245.01856956 -132.82496643 236.50120544 C-127.89414103 226.59766656 -122.95327853 216.71230268 -117.73121643 206.95823669 C-112.84288051 197.75957755 -108.26133563 188.40316067 -103.61894226 179.0789032 C-99.06536986 169.93649625 -94.48007034 160.82364255 -89.66090393 151.81761169 C-85.39421965 143.79045991 -81.37546944 135.63878682 -77.32496643 127.50120544 C-68.31814433 109.40623116 -68.31814433 109.40623116 -63.88746643 101.12620544 C-58.58703269 91.21832754 -53.62781625 81.13927223 -48.620224 71.08146667 C-44.04833079 61.90224194 -39.45588559 52.74524555 -34.60377502 43.70994568 C-31.9069455 38.65237799 -29.34338853 33.53614178 -26.80934143 28.39573669 C-26.45183807 27.67246185 -26.09433472 26.94918701 -25.72599792 26.20399475 C-23.92591361 22.56141615 -22.13410418 18.91517389 -20.35572815 15.26194763 C-19.6921807 13.91574529 -19.02829572 12.56970924 -18.36402893 11.22386169 C-18.06647705 10.60493546 -17.76892517 9.98600922 -17.46235657 9.34832764 C-13.06127474 0.49286927 -9.39709113 -0.08608149 0 0 Z " fill="#2975AA" transform="translate(246.82496643066406,18.498794555664063)"/>
<path d="M0 0 C0.33 0 0.66 0 1 0 C5.02244852 28.96420786 -2.28395337 48.50222289 -16.48046875 73.61328125 C-16.97380361 74.48602062 -17.46713846 75.35875999 -17.97542286 76.25794601 C-20.70181364 81.05041252 -23.48172616 85.77865526 -26.43180847 90.4370575 C-36.41360071 106.89551658 -37.81891999 121.61933931 -37.42125559 140.3066082 C-37.35557939 144.10718768 -37.36852527 147.90758853 -37.37277222 151.70861816 C-37.36992415 158.87328464 -37.30421025 166.03576109 -37.21200454 173.19977999 C-37.07901728 183.72527715 -37.03375085 194.25125998 -36.99961662 204.77748871 C-36.99580425 205.94187399 -36.99580425 205.94187399 -36.99191487 207.1297822 C-36.98689107 208.67798125 -36.98205632 210.22618092 -36.97741592 211.77438116 C-36.96165873 216.27236554 -36.92419113 220.76948502 -36.86705518 225.2671299 C-36.84160598 227.38628091 -36.8227084 229.50537964 -36.80632019 231.62461853 C-36.7854509 234.19547363 -36.753439 236.76627457 -36.70768738 239.33680725 C-36.66107764 247.88321476 -37.51000642 255.56071117 -43 262.4375 C-43.495 263.07558594 -43.99 263.71367187 -44.5 264.37109375 C-46 266 -46 266 -49 268 C-49.33 333.67 -49.66 399.34 -50 467 C-182.33 467 -314.66 467 -451 467 C-451 450 -451 450 -444.625 443.625 C-439.72977503 440.59462264 -435.26715934 439.74998822 -429.56137276 439.75390434 C-427.63629424 439.7479312 -427.63629424 439.7479312 -425.67232525 439.74183738 C-424.25543656 439.74754279 -422.83854861 439.75343397 -421.42166138 439.75949097 C-419.91093018 439.75861859 -418.40019927 439.75686703 -416.88946998 439.75431263 C-412.74141284 439.74984135 -408.593459 439.75783979 -404.44541502 439.76786876 C-399.97104109 439.77650409 -395.49667301 439.77358304 -391.02229309 439.77206421 C-383.27121729 439.77101541 -375.52017515 439.77729148 -367.76910782 439.78853989 C-356.56236408 439.80479261 -345.35563662 439.81000266 -334.14888237 439.81251587 C-315.96675871 439.81689333 -297.78465299 439.83020382 -279.60253906 439.84912109 C-261.94010507 439.86747857 -244.27767597 439.88161279 -226.61523438 439.89013672 C-225.51545376 439.89067271 -224.41567314 439.89120871 -223.28256583 439.89176095 C-214.68158381 439.89591978 -206.08060168 439.89983363 -197.4796195 439.90367007 C-155.31972987 439.92253809 -113.15988515 439.96277455 -71 440 C-71 384.23 -71 328.46 -71 271 C-72.98 270.67 -74.96 270.34 -77 270 C-84.74857761 265.8394337 -88.98563874 259.54690395 -91.53491211 251.26147461 C-92.139301 248.32265345 -92.22098806 245.48323238 -92.31640625 242.484375 C-92.35830078 241.23398437 -92.40019531 239.98359375 -92.44335938 238.6953125 C-92.48267578 237.39335937 -92.52199219 236.09140625 -92.5625 234.75 C-92.60568359 233.43257812 -92.64886719 232.11515625 -92.69335938 230.7578125 C-92.79941917 227.50531212 -92.90148024 224.25273608 -93 221 C-93.55349121 222.11221924 -94.10698242 223.22443848 -94.67724609 224.37036133 C-96.78119489 228.59670553 -98.8880192 232.8216113 -100.99560547 237.04614258 C-101.89805245 238.85598802 -102.79977455 240.66619515 -103.70068359 242.47680664 C-108.88282937 252.8903141 -114.14484748 263.25129833 -119.58810425 273.53096008 C-122.64742387 279.31148907 -125.61032801 285.13266922 -128.5 291 C-132.30293068 298.66528216 -136.21645594 306.25986785 -140.23046875 313.81640625 C-143.41406687 319.83210112 -146.47323409 325.90407651 -149.5 332 C-153.30539379 339.6640844 -157.21642321 347.25980623 -161.23046875 354.81640625 C-164.90149781 361.7531457 -168.40009642 368.77068946 -171.89013672 375.79980469 C-175.23292641 382.51370279 -178.67190642 389.16971755 -182.21289062 395.78125 C-185.12598817 401.24780342 -187.90248548 406.77884123 -190.66748047 412.32128906 C-191.08464828 413.15661163 -191.5018161 413.9919342 -191.93162537 414.85256958 C-192.95481606 416.9015142 -193.9775959 418.9506628 -195 421 C-227.53586368 421.25117456 -260.07144697 421.44572673 -292.60805951 421.56171862 C-296.4530634 421.57547568 -300.29806538 421.5897133 -304.14306641 421.60424805 C-305.29122681 421.60857617 -305.29122681 421.60857617 -306.46258238 421.61299173 C-318.84140661 421.66079999 -331.21966642 421.74749802 -343.5981563 421.84868076 C-356.3085585 421.95170667 -369.018666 422.01267974 -381.72946858 422.03497344 C-389.56718492 422.05003491 -397.40330579 422.09752238 -405.2405307 422.18708114 C-411.25985455 422.25234391 -417.27781891 422.25896831 -423.29753685 422.24418449 C-425.75980871 422.24720279 -428.22214275 422.26897988 -430.68405342 422.31126022 C-451.2200081 422.64654576 -451.2200081 422.64654576 -457.68233705 417.31928235 C-460.02551375 415.04233693 -462.01407066 412.59209291 -464 410 C-465.09325284 408.70526071 -466.19371011 407.41657348 -467.30096054 406.13378429 C-467.81438436 405.53696919 -468.32780818 404.94015408 -468.8567903 404.32525367 C-469.2340495 403.88791996 -469.6113087 403.45058625 -470 403 C-469.44463914 402.99902319 -468.88927828 402.99804638 -468.31708831 402.99703997 C-435.42442534 402.938807 -402.53183842 402.86503995 -369.6392589 402.77101372 C-365.69253034 402.75974514 -361.74580142 402.74860675 -357.79907227 402.73754883 C-357.01332751 402.73534514 -356.22758276 402.73314146 -355.41802756 402.730871 C-342.68424072 402.6954688 -329.95045394 402.67062119 -317.21663608 402.64965298 C-304.15702879 402.62791417 -291.09748554 402.59488212 -278.03793269 402.55129844 C-269.97515852 402.52474852 -261.91246419 402.5070778 -253.84964845 402.50065396 C-247.67399738 402.49479165 -241.49849312 402.47324061 -235.32290268 402.44572449 C-232.78439787 402.43689769 -230.24586932 402.43323119 -227.70734978 402.43499184 C-224.25310663 402.43663182 -220.79942684 402.42005435 -217.34526062 402.39872742 C-216.33067974 402.40357499 -215.31609887 402.40842257 -214.27077311 402.41341704 C-213.34866693 402.4039605 -212.42656075 402.39450396 -211.47651196 402.38476086 C-210.67871954 402.38286225 -209.88092713 402.38096365 -209.05895919 402.37900752 C-206.48344185 401.9049134 -205.62952684 401.00413524 -204 399 C-202.93425886 397.3319819 -202.93425886 397.3319819 -202.02978516 395.49194336 C-201.67108337 394.79433395 -201.31238159 394.09672455 -200.94281006 393.37797546 C-200.56207336 392.622892 -200.18133667 391.86780853 -199.7890625 391.08984375 C-199.38447815 390.29862625 -198.9798938 389.50740875 -198.56304932 388.69221497 C-197.24468181 386.11016278 -195.93475442 383.52393032 -194.625 380.9375 C-193.71672753 379.15440893 -192.80803388 377.37153235 -191.89892578 375.58886719 C-186.30931387 364.61455708 -180.78164861 353.6099275 -175.30004883 342.58129883 C-172.01606187 335.98633324 -168.62473184 329.46006806 -165.15771484 322.95996094 C-160.61803999 314.38441977 -156.32425227 305.68540202 -152 297 C-147.04588397 287.04959884 -142.08065992 277.11771375 -136.8359375 267.31640625 C-132.17112792 258.54023908 -127.79387809 249.61752574 -123.365448 240.72064209 C-118.97190738 231.89740688 -114.53473354 223.11057184 -109.88671875 214.41796875 C-105.60506982 206.35586726 -101.56737428 198.17151777 -97.5 190 C-92.72970912 180.41629466 -87.93498175 170.85910623 -82.88671875 161.41796875 C-78.60506982 153.35586726 -74.56737428 145.17151777 -70.5 137 C-65.72970912 127.41629466 -60.93498175 117.85910623 -55.88671875 108.41796875 C-51.60506975 100.35586713 -47.56737787 92.17151608 -43.5 84 C-38.75555032 74.46824869 -33.99229687 64.95986415 -28.96362305 55.57397461 C-26.09954603 50.18562632 -23.35838764 44.7404641 -20.640625 39.27734375 C-20.24665024 38.48585937 -19.85267548 37.694375 -19.44676208 36.87890625 C-17.46016357 32.88479369 -15.47943198 28.88789161 -13.50610352 24.88720703 C-4.81096026 7.32195562 -4.81096026 7.32195562 0 0 Z " fill="#B5B9BA" transform="translate(506,39)"/>
<path d="M0 0 C0.33 0 0.66 0 1 0 C5.39195895 31.62491983 -4.38302369 52.74744088 -20.03417969 79.81738281 C-23.85735999 86.44400671 -27.30672852 93.23247029 -30.75 100.0625 C-34.59303044 107.50412784 -38.56328694 114.8635355 -42.625 122.1875 C-49.35100593 134.33057949 -55.4632719 146.78712756 -61.61962891 159.2253418 C-66.54581387 169.16691608 -71.60745276 179.02246546 -76.79931641 188.82788086 C-79.31281607 193.57929285 -81.74351731 198.36865145 -84.125 203.1875 C-84.87752716 204.70186119 -85.63013444 206.21618256 -86.3828125 207.73046875 C-86.78258301 208.53637451 -87.18235352 209.34228027 -87.59423828 210.17260742 C-89.32795012 213.65960235 -91.07001736 217.14238167 -92.8125 220.625 C-95.52436468 226.04513866 -98.22994794 231.46834384 -100.9296875 236.89453125 C-113.12608102 261.39100606 -113.12608102 261.39100606 -119.48388672 273.32348633 C-123.07980453 280.09098247 -126.487792 286.94742647 -129.89575195 293.81103516 C-133.24283746 300.53351633 -136.70771876 307.18468961 -140.23046875 313.81640625 C-143.41406687 319.83210112 -146.47323409 325.90407651 -149.5 332 C-153.30539379 339.6640844 -157.21642321 347.25980623 -161.23046875 354.81640625 C-164.90149781 361.7531457 -168.40009642 368.77068946 -171.89013672 375.79980469 C-175.23292641 382.51370279 -178.67190642 389.16971755 -182.21289062 395.78125 C-185.12598817 401.24780342 -187.90248548 406.77884123 -190.66748047 412.32128906 C-191.08464828 413.15661163 -191.5018161 413.9919342 -191.93162537 414.85256958 C-192.95481606 416.9015142 -193.9775959 418.9506628 -195 421 C-227.53586368 421.25117456 -260.07144697 421.44572673 -292.60805951 421.56171862 C-296.4530634 421.57547568 -300.29806538 421.5897133 -304.14306641 421.60424805 C-305.29122681 421.60857617 -305.29122681 421.60857617 -306.46258238 421.61299173 C-318.84140661 421.66079999 -331.21966642 421.74749802 -343.5981563 421.84868076 C-356.3085585 421.95170667 -369.018666 422.01267974 -381.72946858 422.03497344 C-389.56718492 422.05003491 -397.40330579 422.09752238 -405.2405307 422.18708114 C-411.25985455 422.25234391 -417.27781891 422.25896831 -423.29753685 422.24418449 C-425.75980871 422.24720279 -428.22214275 422.26897988 -430.68405342 422.31126022 C-451.2200081 422.64654576 -451.2200081 422.64654576 -457.68233705 417.31928235 C-460.02551375 415.04233693 -462.01407066 412.59209291 -464 410 C-465.09325284 408.70526071 -466.19371011 407.41657348 -467.30096054 406.13378429 C-467.81438436 405.53696919 -468.32780818 404.94015408 -468.8567903 404.32525367 C-469.2340495 403.88791996 -469.6113087 403.45058625 -470 403 C-469.44463914 402.99902319 -468.88927828 402.99804638 -468.31708831 402.99703997 C-435.42442534 402.938807 -402.53183842 402.86503995 -369.6392589 402.77101372 C-365.69253034 402.75974514 -361.74580142 402.74860675 -357.79907227 402.73754883 C-357.01332751 402.73534514 -356.22758276 402.73314146 -355.41802756 402.730871 C-342.68424072 402.6954688 -329.95045394 402.67062119 -317.21663608 402.64965298 C-304.15702879 402.62791417 -291.09748554 402.59488212 -278.03793269 402.55129844 C-269.97515852 402.52474852 -261.91246419 402.5070778 -253.84964845 402.50065396 C-247.67399738 402.49479165 -241.49849312 402.47324061 -235.32290268 402.44572449 C-232.78439787 402.43689769 -230.24586932 402.43323119 -227.70734978 402.43499184 C-224.25310663 402.43663182 -220.79942684 402.42005435 -217.34526062 402.39872742 C-216.33067974 402.40357499 -215.31609887 402.40842257 -214.27077311 402.41341704 C-213.34866693 402.4039605 -212.42656075 402.39450396 -211.47651196 402.38476086 C-210.67871954 402.38286225 -209.88092713 402.38096365 -209.05895919 402.37900752 C-206.48344185 401.9049134 -205.62952684 401.00413524 -204 399 C-202.93425886 397.3319819 -202.93425886 397.3319819 -202.02978516 395.49194336 C-201.67108337 394.79433395 -201.31238159 394.09672455 -200.94281006 393.37797546 C-200.56207336 392.622892 -200.18133667 391.86780853 -199.7890625 391.08984375 C-199.38447815 390.29862625 -198.9798938 389.50740875 -198.56304932 388.69221497 C-197.24468181 386.11016278 -195.93475442 383.52393032 -194.625 380.9375 C-193.71672753 379.15440893 -192.80803388 377.37153235 -191.89892578 375.58886719 C-186.30931387 364.61455708 -180.78164861 353.6099275 -175.30004883 342.58129883 C-172.01606187 335.98633324 -168.62473184 329.46006806 -165.15771484 322.95996094 C-160.61803999 314.38441977 -156.32425227 305.68540202 -152 297 C-147.04588397 287.04959884 -142.08065992 277.11771375 -136.8359375 267.31640625 C-132.17112792 258.54023908 -127.79387809 249.61752574 -123.365448 240.72064209 C-118.97190738 231.89740688 -114.53473354 223.11057184 -109.88671875 214.41796875 C-105.60506982 206.35586726 -101.56737428 198.17151777 -97.5 190 C-92.72970912 180.41629466 -87.93498175 170.85910623 -82.88671875 161.41796875 C-78.60506982 153.35586726 -74.56737428 145.17151777 -70.5 137 C-65.72970912 127.41629466 -60.93498175 117.85910623 -55.88671875 108.41796875 C-51.60506975 100.35586713 -47.56737787 92.17151608 -43.5 84 C-38.75555032 74.46824869 -33.99229687 64.95986415 -28.96362305 55.57397461 C-26.09954603 50.18562632 -23.35838764 44.7404641 -20.640625 39.27734375 C-20.24665024 38.48585937 -19.85267548 37.694375 -19.44676208 36.87890625 C-17.46016357 32.88479369 -15.47943198 28.88789161 -13.50610352 24.88720703 C-4.81096026 7.32195562 -4.81096026 7.32195562 0 0 Z " fill="#D0D2D3" transform="translate(506,39)"/>
<path d="M0 0 C0.33 0 0.66 0 1 0 C1.07017676 17.70712107 1.12303056 35.41420589 1.15543652 53.12143612 C1.17088516 61.34378148 1.19193624 69.56604028 1.22631836 77.78833008 C1.2562822 84.95745023 1.27558955 92.12650766 1.28226548 99.29568869 C1.28616595 103.08940082 1.29529047 106.88293359 1.31719017 110.67658806 C1.33766593 114.25280272 1.34381162 117.82876539 1.33932304 121.40503311 C1.34053222 123.33206153 1.35661604 125.25906298 1.3732605 127.1860199 C1.34289317 135.76540238 0.51317905 143.53166895 -5 150.4375 C-5.7425 151.39462891 -5.7425 151.39462891 -6.5 152.37109375 C-8 154 -8 154 -11 156 C-11.46329927 159.07076172 -11.46329927 159.07076172 -11.39199829 162.76356506 C-11.39793955 163.46693935 -11.40388081 164.17031364 -11.41000211 164.89500231 C-11.42637734 167.26357478 -11.42133355 169.63162685 -11.41650391 172.00024414 C-11.42387911 173.6934825 -11.4325826 175.38671553 -11.44252014 177.0799408 C-11.46590847 181.68720811 -11.47099624 186.29434086 -11.47317934 190.9016602 C-11.47882546 195.71390031 -11.50208817 200.52605175 -11.52377319 205.33824158 C-11.56234851 214.45658334 -11.58653505 223.57489985 -11.60489786 232.69330257 C-11.63827205 249.03345159 -11.69591101 265.37352511 -11.75888956 281.71358389 C-11.78044205 287.45359254 -11.79567699 293.19357487 -11.80572915 298.93361485 C-11.81272441 302.4965641 -11.82360129 306.05949446 -11.83537102 309.6224308 C-11.83994666 311.28132999 -11.84278058 312.94023498 -11.84379387 314.59914017 C-11.84535476 316.85393902 -11.85290483 319.10863934 -11.86196899 321.36341858 C-11.86452509 322.62828629 -11.86708118 323.89315401 -11.86971474 325.19635105 C-12 328 -12 328 -13 329 C-19.6 329 -26.2 329 -33 329 C-33 272.9 -33 216.8 -33 159 C-34.98 158.67 -36.96 158.34 -39 158 C-46.74420877 153.84177953 -50.97417641 147.55807994 -53.53100586 139.28100586 C-56.46137491 125.02882573 -56.53603094 105.48145239 -48.60546875 93.08984375 C-48.19345215 92.46706543 -47.78143555 91.84428711 -47.35693359 91.20263672 C-44.40347496 86.40844748 -42.0922625 81.24318843 -39.625 76.1875 C-35.43663164 67.77230481 -31.15436174 59.41634352 -26.73657227 51.11962891 C-23.39734637 44.82287974 -20.22391017 38.45003495 -17.0625 32.0625 C-11.680533 21.20079142 -5.94708748 10.56157372 0 0 Z " fill="#B6B9BA" transform="translate(468,151)"/>
<path d="M0 0 C12.30617914 7.22717422 20.62359262 17.50234588 24.25 31.3125 C26.85803611 44.8460928 24.34662726 57.53063314 17.0703125 69.17578125 C9.71234266 79.21316275 -0.71473587 85.98972642 -12.9375 88.4375 C-26.38399318 90.14025436 -38.80899627 87.62349732 -49.875 79.6796875 C-59.49584975 72.0749717 -65.18460963 63.02939524 -68 51 C-69.48884608 37.08807634 -67.55696178 24.68999934 -58.9765625 13.31640625 C-53.01650986 6.33160148 -46.49889345 1.48603261 -38 -2 C-37.10925781 -2.36609375 -36.21851562 -2.7321875 -35.30078125 -3.109375 C-24.27498415 -6.08438297 -10.1276995 -5.24920296 0 0 Z " fill="#E58422" transform="translate(111,58)"/>
<path d="M0 0 C0.97262787 0.00444122 1.94525574 0.00888245 2.94735718 0.01345825 C4.59884262 0.01368484 4.59884262 0.01368484 6.28369141 0.01391602 C7.4764267 0.02423859 8.66916199 0.03456116 9.89804077 0.04519653 C11.11599335 0.04802643 12.33394592 0.05085632 13.58880615 0.05377197 C17.4914621 0.06499647 21.3938913 0.09010531 25.29647827 0.11550903 C27.93709997 0.12553589 30.57772524 0.13466225 33.21835327 0.14285278 C39.70280607 0.16494322 46.18712598 0.19844311 52.67147827 0.24050903 C51.23738605 4.9269819 49.31416946 9.23337695 47.10897827 13.59597778 C46.76177231 14.29029404 46.41456635 14.98461029 46.05683899 15.69996643 C44.93257851 17.94477963 43.80226597 20.18647768 42.67147827 22.42800903 C41.88821933 23.98767322 41.10509829 25.54740666 40.32211304 27.10720825 C36.13467369 35.43464184 31.89067234 43.72628543 27.49642944 51.94680786 C22.63288171 61.09805109 18.06575218 70.40241052 13.46615601 79.68826294 C13.13632721 80.35215027 12.80649841 81.0160376 12.4666748 81.70004272 C11.56817986 83.50876165 10.67210311 85.31868127 9.7762146 87.12869263 C6.83222048 92.88008446 3.73467716 98.5517111 0.67147827 104.24050903 C-17.80852173 104.24050903 -36.28852173 104.24050903 -55.32852173 104.24050903 C-53.91584801 100.00248789 -52.64038322 96.66511887 -50.59805298 92.80300903 C-50.04987915 91.75822388 -49.50170532 90.71343872 -48.93692017 89.63699341 C-48.34427368 88.51615356 -47.7516272 87.39531372 -47.14102173 86.24050903 C-45.86798761 83.81525067 -44.5994586 81.38765854 -43.33242798 78.95925903 C-43.0045932 78.33128418 -42.67675842 77.70330933 -42.33898926 77.05630493 C-38.66334725 69.99536519 -35.12016978 62.86931247 -31.57852173 55.74050903 C-27.10395483 46.74095197 -22.5710633 37.78158138 -17.84121704 28.91262817 C-14.27007347 22.19752213 -10.8858177 15.39316768 -7.54995728 8.55838013 C-7.15719604 7.7612561 -6.76443481 6.96413208 -6.35977173 6.14285278 C-6.01494751 5.43636597 -5.67012329 4.72987915 -5.31484985 4.00198364 C-3.85986235 1.40353442 -3.02674352 0.31262717 0 0 Z " fill="#2D7BAD" transform="translate(162.32852172851563,325.7594909667969)"/>
<path d="M0 0 C18.48 0 36.96 0 56 0 C53.75026635 6.74920094 53.75026635 6.74920094 52.15917969 9.81689453 C51.80358978 10.50790253 51.44799988 11.19891052 51.08163452 11.91085815 C50.69891388 12.64410309 50.31619324 13.37734802 49.921875 14.1328125 C49.51860992 14.91431671 49.11534485 15.69582092 48.69985962 16.50100708 C47.83547846 18.17531808 46.96922129 19.84866168 46.10125732 21.52111816 C43.81661009 25.92364856 41.54544528 30.33312468 39.2734375 34.7421875 C38.82001984 35.62132812 38.36660217 36.50046875 37.89944458 37.40625 C33.99341773 44.98919723 30.16871333 52.61039095 26.375 60.25 C19.20475571 74.66608474 11.71039484 88.86427613 4 103 C-14.48 103 -32.96 103 -52 103 C-50.59465165 98.78395494 -49.33607208 95.47125275 -47.3046875 91.6328125 C-46.76166992 90.59833984 -46.21865234 89.56386719 -45.65917969 88.49804688 C-45.07040039 87.38494141 -44.48162109 86.27183594 -43.875 85.125 C-42.60305493 82.70245615 -41.33583689 80.27746595 -40.0703125 77.8515625 C-39.74023193 77.21909607 -39.41015137 76.58662964 -39.07006836 75.93499756 C-35.20338365 68.50337845 -31.47890691 61.00139239 -27.75 53.5 C-21.98489044 41.91495803 -16.08148021 30.42332094 -10 19 C-6.7 12.73 -3.4 6.46 0 0 Z " fill="#3E8ED4" transform="translate(228,327)"/>
<path d="M0 0 C17.82 0 35.64 0 54 0 C43.48715203 22.19379015 43.48715203 22.19379015 39.5625 30 C39.10133789 30.92039062 38.64017578 31.84078125 38.16503906 32.7890625 C34.87994406 39.31877905 31.49126058 45.78822899 28.05761719 52.24072266 C23.35496231 61.12943896 18.90108921 70.14438904 14.44042969 79.15625 C14.13334579 79.77464752 13.8262619 80.39304504 13.50987244 81.03018188 C12.67587293 82.70987639 11.84430708 84.39077864 11.01293945 86.07177734 C8.09760971 91.76100178 5.03077085 97.37142556 2 103 C-15.82 103 -33.64 103 -52 103 C-50.47696713 98.43090139 -48.81085761 94.34124339 -46.65625 90.08203125 C-46.3312854 89.43219772 -46.0063208 88.7823642 -45.67150879 88.11283875 C-44.61853126 86.01059158 -43.55950082 83.91146606 -42.5 81.8125 C-41.76418382 80.34772612 -41.02850764 78.88288189 -40.29296875 77.41796875 C-36.24071675 69.36223437 -32.12532914 61.34559828 -27.87353516 53.39306641 C-25.20833582 48.37745506 -22.64541963 43.3160505 -20.1171875 38.23046875 C-19.76964417 37.53184723 -19.42210083 36.83322571 -19.06402588 36.11343384 C-17.3304979 32.62564476 -15.60278483 29.13511784 -13.8828125 25.640625 C-13.23187538 24.32677112 -12.58083757 23.01296711 -11.9296875 21.69921875 C-11.36491699 20.55283936 -10.80014648 19.40645996 -10.21826172 18.2253418 C-6.98083544 12.05869679 -3.4555085 6.04713987 0 0 Z " fill="#3E8ED4" transform="translate(92,327)"/>
<path d="M0 0 C0.97262787 0.00444122 1.94525574 0.00888245 2.94735718 0.01345825 C4.59884262 0.01368484 4.59884262 0.01368484 6.28369141 0.01391602 C7.4764267 0.02423859 8.66916199 0.03456116 9.89804077 0.04519653 C11.11599335 0.04802643 12.33394592 0.05085632 13.58880615 0.05377197 C17.4914621 0.06499647 21.3938913 0.09010531 25.29647827 0.11550903 C27.93709997 0.12553589 30.57772524 0.13466225 33.21835327 0.14285278 C39.70280607 0.16494322 46.18712598 0.19844311 52.67147827 0.24050903 C47.31350999 11.63599054 41.88401784 22.98687986 36.23397827 34.24050903 C35.91310242 34.88137451 35.59222656 35.52223999 35.2616272 36.18252563 C31.06972089 44.55290017 26.80402418 52.87870597 22.40072632 61.14016724 C16.60409584 72.06024763 11.17648784 83.17192597 5.67147827 94.24050903 C-12.80852173 94.24050903 -31.28852173 94.24050903 -50.32852173 94.24050903 C-40.001472 72.43895961 -40.001472 72.43895961 -35.65664673 64.01785278 C-35.17122406 63.07057312 -34.68580139 62.12329346 -34.18566895 61.14730835 C-32.65250341 58.15622542 -31.11558438 55.16709083 -29.57852173 52.17800903 C-27.45440492 48.03826503 -25.33243838 43.89742236 -23.21133423 39.75613403 C-22.698237 38.75474899 -22.18513977 37.75336395 -21.65649414 36.72163391 C-18.72220219 30.9877634 -15.81168549 25.24320929 -12.94570923 19.47488403 C-12.47910889 18.53601097 -12.47910889 18.53601097 -12.00308228 17.57817078 C-10.63111491 14.81323798 -9.26590133 12.04515319 -7.90762329 9.27346802 C-7.22264771 7.88623535 -7.22264771 7.88623535 -6.52383423 6.47097778 C-6.14243286 5.69133667 -5.76103149 4.91169556 -5.36807251 4.10842896 C-3.89668451 1.46456103 -3.08319918 0.31845838 0 0 Z " fill="#3E8ED4" transform="translate(264.3285217285156,125.75949096679688)"/>
<path d="M0 0 C0.95708359 0.00222061 1.91416718 0.00444122 2.9002533 0.00672913 C3.98129837 0.00680466 5.06234344 0.00688019 6.17614746 0.00695801 C7.94018166 0.01469994 7.94018166 0.01469994 9.73985291 0.02259827 C10.93702438 0.02401321 12.13419586 0.02542816 13.36764526 0.02688599 C17.20918732 0.03250472 21.05067208 0.04506041 24.89219666 0.05775452 C27.48920102 0.0627671 30.0862063 0.06733043 32.68321228 0.07142639 C39.06539344 0.08248024 45.44754096 0.0992366 51.82969666 0.12025452 C50.64396262 3.85161132 49.33775446 7.35328702 47.57969666 10.85072327 C47.14181824 11.72519104 46.70393982 12.59965881 46.25279236 13.50062561 C45.54835999 14.89015442 45.54835999 14.89015442 44.82969666 16.30775452 C44.33622742 17.28824768 43.84275818 18.26874084 43.33433533 19.27894592 C39.95437419 25.96956898 36.47912302 32.60497195 32.95713806 39.22157288 C28.03719116 48.5231981 23.3836374 57.96040233 18.71372986 67.38929749 C18.38549728 68.04999237 18.05726471 68.71068726 17.71908569 69.3914032 C16.82701825 71.18722524 15.93738798 72.98425737 15.04795837 74.78138733 C11.72909137 81.2730123 8.26067131 87.68717704 4.82969666 94.12025452 C-12.99030334 94.12025452 -30.81030334 94.12025452 -49.17030334 94.12025452 C-47.59727416 89.40116697 -45.83402987 85.16900074 -43.60780334 80.76478577 C-43.2606427 80.07056015 -42.91348206 79.37633453 -42.55580139 78.66107178 C-41.43149494 76.41616714 -40.30113522 74.17437822 -39.17030334 71.93275452 C-38.38631178 70.37162559 -37.60245833 68.8104273 -36.81874084 67.24916077 C-32.65999721 58.97875484 -28.44742565 50.74277804 -24.07875061 42.58094788 C-18.77512532 32.60510796 -13.81258373 22.45016398 -8.79335022 12.32923889 C-8.42971878 11.59774628 -8.06608734 10.86625366 -7.69143677 10.1125946 C-6.99928493 8.72005211 -6.30882255 7.32666831 -5.62023926 5.93235779 C-2.74532683 0.15211604 -2.74532683 0.15211604 0 0 Z " fill="#3E8ED4" transform="translate(196.17030334472656,125.87974548339844)"/>
<path d="M0 0 C18.48 0 36.96 0 56 0 C55.21070615 3.94646926 54.6837154 5.97442691 52.875 9.32421875 C52.42431152 10.17081055 51.97362305 11.01740234 51.50927734 11.88964844 C51.01121582 12.81293945 50.5131543 13.73623047 50 14.6875 C44.63004472 24.79818361 39.4699434 34.99884882 34.375 45.25 C28.40426423 57.25143661 22.32060842 69.17812129 16 81 C15.67 81.66 15.34 82.32 15 83 C-3.48 83 -21.96 83 -41 83 C-40.00628315 78.03141576 -38.26936418 74.42648243 -35.875 70.0625 C-31.24591774 61.45777206 -26.84532523 52.75000164 -22.5 44 C-17.84965111 34.64645735 -13.15158032 25.32543938 -8.23242188 16.109375 C-5.38848675 10.78019928 -2.70520662 5.41041324 0 0 Z " fill="#3E8ED4" transform="translate(276,232)"/>
<path d="M0 0 C18.15 0 36.3 0 55 0 C53.49988375 4.50034874 51.97924772 8.28757165 49.875 12.48046875 C49.57218613 13.08600082 49.26937225 13.6915329 48.9573822 14.31541443 C47.97577948 16.27491299 46.98812563 18.23128376 46 20.1875 C45.31309163 21.554454 44.62632514 22.9214793 43.93969727 24.28857422 C39.97975068 32.15755254 35.94622079 39.98251718 31.80126953 47.75585938 C25.63138047 59.38125635 19.86211791 71.21829244 14 83 C-4.48 83 -22.96 83 -42 83 C-31.64451369 61.13841779 -31.64451369 61.13841779 -27.1875 52.4609375 C-26.68887451 51.48492584 -26.19024902 50.50891418 -25.67651367 49.50332642 C-24.63951205 47.47484522 -23.60118807 45.44703948 -22.56152344 43.41992188 C-20.99881476 40.37268881 -19.44047656 37.32325182 -17.8828125 34.2734375 C-16.85962898 32.27330755 -15.83619972 30.2733033 -14.8125 28.2734375 C-14.36221436 27.39271576 -13.91192871 26.51199402 -13.44799805 25.60458374 C-9.04513099 17.02519004 -4.51331358 8.52514786 0 0 Z " fill="#3E8ED4" transform="translate(310,31)"/>
<path d="M0 0 C15.84 0 31.68 0 48 0 C42.28726505 12.06021823 36.54565712 24.07620461 30.5625 36 C30.19493591 36.73424194 29.82737183 37.46848389 29.44866943 38.22497559 C24.89001496 47.32946754 20.27813536 56.39909759 15.48706055 65.3840332 C10.46494386 74.82482974 5.75755001 84.42390575 1 94 C-14.84 94 -30.68 94 -47 94 C-46.01389321 89.06946606 -44.31382221 85.51459068 -41.9375 81.1875 C-37.10758281 72.2135283 -32.53442592 63.12527555 -28 54 C-22.15163196 42.24724344 -16.16962495 30.58889011 -10 19 C-6.7 12.73 -3.4 6.46 0 0 Z " fill="#3E8ED4" transform="translate(400,126)"/>
<path d="M0 0 C15.84 0 31.68 0 48 0 C45.74973115 6.75080655 45.74973115 6.75080655 44.1875 9.86791992 C43.83917618 10.56760391 43.49085236 11.2672879 43.13197327 11.98817444 C42.75842209 12.72813156 42.38487091 13.46808868 42 14.23046875 C41.6080394 15.01429428 41.2160788 15.79811981 40.8122406 16.60569763 C39.5456896 19.13509485 38.27309431 21.66139069 37 24.1875 C36.12625058 25.92815596 35.25263431 27.66887876 34.37915039 29.40966797 C30.13624937 37.85224659 25.86897385 46.2794325 21.4375 54.625 C16.46893526 64.00229119 11.74595039 73.50809921 7 83 C-9.17 83 -25.34 83 -42 83 C-39.36 77.72 -36.72 72.44 -34 67 C-31.9973572 62.98334556 -31.9973572 62.98334556 -29.99588013 58.96611023 C-28.18105273 55.32252069 -26.36366158 51.68021112 -24.54638672 48.0378418 C-23.60165362 46.14334524 -22.65763868 44.24849037 -21.71435547 42.35327148 C-15.61590092 30.1023469 -9.40294358 17.92432704 -2.96847534 5.84614563 C-1.95317962 3.91074915 -0.97740319 1.95480637 0 0 Z " fill="#3E8ED4" transform="translate(448,31)"/>
<path d="M0 0 C15.84 0 31.68 0 48 0 C46.66178372 3.3455407 45.32849594 6.46915332 43.72851562 9.67236328 C43.28044556 10.57165558 42.83237549 11.47094788 42.37072754 12.39749146 C41.64581116 13.84428787 41.64581116 13.84428787 40.90625 15.3203125 C40.40009155 16.33358612 39.89393311 17.34685974 39.37243652 18.39083862 C38.29745227 20.54148749 37.22145798 22.69163175 36.14453125 24.84130859 C34.53089575 28.0633094 32.92145113 31.28737672 31.3125 34.51171875 C23.15423647 50.83422879 14.73847578 66.97946106 6 83 C-9.84 83 -25.68 83 -42 83 C-40.73708084 79.84270209 -39.51076675 76.89568105 -38.00390625 73.87841797 C-37.61589844 73.09925018 -37.22789062 72.3200824 -36.828125 71.51730347 C-36.41046875 70.6840152 -35.9928125 69.85072693 -35.5625 68.9921875 C-35.12292969 68.11209015 -34.68335938 67.2319928 -34.23046875 66.32522583 C-33.29671971 64.45704772 -32.36196167 62.58937362 -31.42626953 60.72216797 C-30.02992326 57.93473383 -28.63775814 55.14524271 -27.24609375 52.35546875 C-21.31492719 40.48812175 -15.22099699 28.71764684 -9 17 C-6.03 11.39 -3.06 5.78 0 0 Z " fill="#3E8ED4" transform="translate(346,232)"/>
<path d="M0 0 C0.02332665 22.40874194 0.04097802 44.81748188 0.05181217 67.22623348 C0.05697563 77.63023725 0.06401926 88.03423349 0.07543945 98.43823242 C0.08538478 107.50290274 0.09185307 116.5675676 0.09408849 125.63224322 C0.09539586 130.43502608 0.09848333 135.23779334 0.10573006 140.04057121 C0.11248789 144.555668 0.11461745 149.07074268 0.11310768 153.58584404 C0.11338412 155.2479718 0.11539064 156.91010026 0.11920547 158.57222366 C0.12413904 160.83149692 0.12299955 163.09068534 0.12025452 165.34996033 C0.12117631 166.61742568 0.1220981 167.88489103 0.12304783 169.19076443 C0 172 0 172 -1 173 C-7.6 173 -14.2 173 -21 173 C-21 116.9 -21 60.8 -21 3 C-17.04 3 -13.08 3 -9 3 C-0.75 0 -0.75 0 0 0 Z " fill="#D0D3D4" transform="translate(456,307)"/>
<path d="M0 0 C0.89332031 -0.04125 1.78664062 -0.0825 2.70703125 -0.125 C5.23327628 -0.15520921 7.41858736 -0.09443133 9.875 0.5 C15.89333015 6.99053759 16.3241817 16.27544871 16.12109375 24.78125 C14.8273541 39.07399285 6.56413874 50.46904817 -4.125 59.5 C-14.49934741 67.15042956 -25.84995584 71.05055721 -38.125 74.5 C-39.09108323 72.64985947 -40.0474907 70.79466527 -41 68.9375 C-41.53367187 67.90496094 -42.06734375 66.87242188 -42.6171875 65.80859375 C-47.46807994 55.16427796 -47.95194256 42.21570907 -44.5625 31 C-39.6234288 18.49689667 -30.6640607 9.23826096 -18.58203125 3.5078125 C-17.77121094 3.17523438 -16.96039063 2.84265625 -16.125 2.5 C-15.24457031 2.13648438 -14.36414063 1.77296875 -13.45703125 1.3984375 C-8.94211848 0.18105188 -4.65776203 0.05423886 0 0 Z " fill="#E59A22" transform="translate(89.125,53.5)"/>
<path d="M0 0 C2.93230193 1.32120828 4.98664899 2.74638197 7.234375 5.0390625 C8.09482422 5.90917969 8.09482422 5.90917969 8.97265625 6.796875 C9.55917969 7.40015625 10.14570312 8.0034375 10.75 8.625 C11.35199219 9.23601563 11.95398438 9.84703125 12.57421875 10.4765625 C14.05405305 11.97988624 15.52764676 13.48934856 17 15 C15.07712966 19.29378813 12.37521131 21.77153701 9 25 C6.06769807 23.67879172 4.01335101 22.25361803 1.765625 19.9609375 C1.19199219 19.38085938 0.61835938 18.80078125 0.02734375 18.203125 C-0.55917969 17.59984375 -1.14570313 16.9965625 -1.75 16.375 C-2.35199219 15.76398437 -2.95398438 15.15296875 -3.57421875 14.5234375 C-5.05405305 13.02011376 -6.52764676 11.51065144 -8 10 C-6.07712966 5.70621187 -3.37521131 3.22846299 0 0 Z " fill="#E48423" transform="translate(29,28)"/>
<path d="M0 0 C4.29378813 1.92287034 6.77153701 4.62478869 10 8 C8.67879172 10.93230193 7.25361803 12.98664899 4.9609375 15.234375 C4.09082031 16.09482422 4.09082031 16.09482422 3.203125 16.97265625 C2.59984375 17.55917969 1.9965625 18.14570312 1.375 18.75 C0.76398438 19.35199219 0.15296875 19.95398438 -0.4765625 20.57421875 C-1.97988624 22.05405305 -3.48934856 23.52764676 -5 25 C-9.29378813 23.07712966 -11.77153701 20.37521131 -15 17 C-13.67879172 14.06769807 -12.25361803 12.01335101 -9.9609375 9.765625 C-9.38085938 9.19199219 -8.80078125 8.61835937 -8.203125 8.02734375 C-7.59984375 7.44082031 -6.9965625 6.85429688 -6.375 6.25 C-5.76398438 5.64800781 -5.15296875 5.04601563 -4.5234375 4.42578125 C-3.02011376 2.94594695 -1.51065144 1.47235324 0 0 Z " fill="#E78420" transform="translate(147,28)"/>
<path d="M0 0 C4.29 0 8.58 0 13 0 C13 7.59 13 15.18 13 23 C8.71 23 4.42 23 0 23 C0 15.41 0 7.82 0 0 Z " fill="#E58322" transform="translate(83,162)"/>
<path d="M0 0 C7.59 0 15.18 0 23 0 C23 4.29 23 8.58 23 13 C15.41 13 7.82 13 0 13 C0 8.71 0 4.42 0 0 Z " fill="#E58422" transform="translate(156,89)"/>
<path d="M0 0 C4.29 0 8.58 0 13 0 C13 7.59 13 15.18 13 23 C8.71 23 4.42 23 0 23 C0 15.41 0 7.82 0 0 Z " fill="#E58322" transform="translate(82,6)"/>
<path d="M0 0 C7 6 7 6 9 10 C4.05 14.95 -0.9 19.9 -6 25 C-10 23 -10 23 -16 16 C-10.72 10.72 -5.44 5.44 0 0 Z " fill="#E48422" transform="translate(37,138)"/>
<path d="M0 0 C2.93230193 1.32120828 4.98664899 2.74638197 7.234375 5.0390625 C8.09482422 5.90917969 8.09482422 5.90917969 8.97265625 6.796875 C9.55917969 7.40015625 10.14570313 8.0034375 10.75 8.625 C11.35199219 9.23601562 11.95398438 9.84703125 12.57421875 10.4765625 C14.05405305 11.97988624 15.52764676 13.48934856 17 15 C15.17495091 18.92300272 12.81729174 21.73787272 10 25 C7.06769807 23.67879172 5.01335101 22.25361803 2.765625 19.9609375 C2.19199219 19.38085938 1.61835938 18.80078125 1.02734375 18.203125 C0.44082031 17.59984375 -0.14570313 16.9965625 -0.75 16.375 C-1.35199219 15.76398438 -1.95398438 15.15296875 -2.57421875 14.5234375 C-4.05405305 13.02011376 -5.52764676 11.51065144 -7 10 C-5.17495091 6.07699728 -2.81729174 3.26212728 0 0 Z " fill="#E58522" transform="translate(140,138)"/>
<path d="M0 0 C7.26 0 14.52 0 22 0 C22 4.29 22 8.58 22 13 C14.74 13 7.48 13 0 13 C0 8.71 0 4.42 0 0 Z " fill="#E48422" transform="translate(0,89)"/>
</svg>
